<svg xmlns="http://www.w3.org/2000/svg" width="128" height="128" viewBox="0 0 128 128">    <path d="M 67 16 C 63.1 16 59.5 17.699219 57 20.699219 C 55.9 21.999219 56.100391 23.900391 57.400391 24.900391 C 58.700391 26.000391 60.599609 25.8 61.599609 24.5 C 62.999609 22.9 64.9 22 67 22 C 69.5 22 71.799609 23.399609 73.099609 25.599609 C 73.599609 26.499609 74.699219 27.099609 75.699219 27.099609 C 76.199219 27.099609 76.699219 26.999219 77.199219 26.699219 C 78.599219 25.899219 79.100781 24.099609 78.300781 22.599609 C 76.000781 18.499609 71.7 16 67 16 z M 51 21.5 C 46.1 21.5 41.900781 24.799609 40.800781 29.599609 C 40.400781 31.199609 41.4 32.799219 43 33.199219 C 43.2 33.299219 43.499219 33.300781 43.699219 33.300781 C 45.099219 33.300781 46.299609 32.4 46.599609 31 C 47.099609 29 48.9 27.5 51 27.5 C 52.7 27.5 54 26.2 54 24.5 C 54 22.8 52.7 21.5 51 21.5 z M 70 27 C 68.3 27 67 28.3 67 30 C 67 31.1 66.1 32 65 32 C 63.3 32 62 33.3 62 35 C 62 36.7 63.3 38 65 38 C 69.4 38 73 34.4 73 30 C 73 28.3 71.7 27 70 27 z M 86.900391 28 C 86.700391 28 86.399219 27.999609 86.199219 28.099609 C 84.499219 28.199609 83.3 29.700391 83.5 31.400391 C 83.6 33.100391 85.100781 34.299609 86.800781 34.099609 L 87.099609 34.099609 C 88.099609 34.099609 89 35 89 36 L 89 36.199219 C 89 37.699219 90.300391 39.099609 91.900391 39.099609 C 93.500391 39.099609 94.800391 37.900391 94.900391 36.400391 L 94.900391 36 C 94.900391 31.6 91.300391 28 86.900391 28 z M 51 33 C 49.3 33 48 34.3 48 36 C 48 38.2 48.900781 40.099609 50.300781 41.599609 C 49.500781 42.099609 49 43 49 44 L 49 64 C 50.8 62.6 52.8 61.499219 55 60.699219 L 55 47 L 61 47 L 61 59.199219 C 62 59.099219 63 59 64 59 C 65 59 66 59.099219 67 59.199219 L 67 47 L 73 47 L 73 60.699219 C 75.2 61.499219 77.2 62.7 79 64 L 79 47 L 85 47 L 85 70.400391 C 87.5 74.300391 89 79 89 84 C 89 89 87.5 93.699609 85 97.599609 L 85 121 L 79 121 L 79 104 C 77.2 105.4 75.2 106.50078 73 107.30078 L 73 121 L 67 121 L 67 108.80078 C 66 108.90078 65 109 64 109 C 63 109 62 108.90078 61 108.80078 L 61 121 L 55 121 L 55 107.30078 C 52.8 106.50078 50.8 105.3 49 104 L 49 121 L 42.300781 121 C 38.600781 121 35.500781 118.10039 35.300781 114.40039 L 31.5 53.800781 C 31.4 52.100781 30.000781 50.9 28.300781 51 C 26.600781 51.1 25.4 52.499219 25.5 54.199219 L 29.300781 114.80078 C 29.700781 121.60078 35.400781 127 42.300781 127 L 62.400391 127 L 85.5 127 L 105.59961 127 C 107.29961 127 108.59961 125.7 108.59961 124 C 108.59961 122.3 107.29961 121 105.59961 121 L 96.400391 121 C 97.600391 119.2 98.300391 117.10078 98.400391 114.80078 L 102.90039 44.199219 L 102.90039 44.099609 L 102.90039 44 L 102.90039 43.800781 L 102.90039 43.5 C 102.90039 43.4 102.90078 43.299219 102.80078 43.199219 C 102.80078 43.099219 102.69922 43.000391 102.69922 42.900391 C 102.69922 42.800391 102.59961 42.799219 102.59961 42.699219 C 102.49961 42.599219 102.50039 42.500391 102.40039 42.400391 C 102.40039 42.300391 102.30078 42.299219 102.30078 42.199219 C 102.20078 42.099219 102.09961 42.000391 102.09961 41.900391 L 102 41.800781 L 101.69922 41.5 L 101.59961 41.400391 C 101.49961 41.300391 101.39922 41.299219 101.19922 41.199219 C 101.09922 41.199219 101.1 41.199609 101 41.099609 C 100.9 41.099609 100.69961 41 100.59961 41 L 100.40039 41 L 100.09961 41 L 100 41 L 99.900391 41 L 87.900391 41 C 87.400391 37.1 84 34 80 34 C 78.3 34 77 35.3 77 37 C 77 38.7 78.3 40 80 40 C 80.7 40 81.399219 40.4 81.699219 41 L 59 41 C 59 39.3 57.7 38 56 38 C 54.9 38 54 37.1 54 36 C 54 34.3 52.7 33 51 33 z M 33.716797 33.091797 C 32.192383 33.225781 31.175 34.374609 31 35.599609 C 30.8 36.999609 31.500391 38.599609 33.400391 39.099609 L 34.099609 39.099609 C 35.999609 39.099609 37.099219 37.600781 37.199219 36.300781 C 37.299219 35.000781 36.300391 33.299609 34.400391 33.099609 C 34.162891 33.074609 33.93457 33.072656 33.716797 33.091797 z M 28 41 C 26.3 41 25 42.3 25 44 C 25 45.7 26.3 47 28 47 L 37 47 C 38.7 47 40 45.7 40 44 C 40 42.3 38.7 41 37 41 L 28 41 z M 64 65 L 64 103 C 74.5 103 83 94.5 83 84 C 83 73.5 74.5 65 64 65 z M 121 121 A 3 3 0 0 0 118 124 A 3 3 0 0 0 121 127 A 3 3 0 0 0 124 124 A 3 3 0 0 0 121 121 z"></path></svg>